<svg width="31" height="30" viewBox="0 0 31 30" fill="none" xmlns="http://www.w3.org/2000/svg">
<mask id="mask0_1_577" style="mask-type:luminance" maskUnits="userSpaceOnUse" x="0" y="0" width="31" height="30">
<path d="M30.2992 0.0776367H0.842529V29.5343H30.2992V0.0776367Z" fill="white"/>
</mask>
<g mask="url(#mask0_1_577)">
<path d="M11.5007 29.5336C7.11663 29.5084 3.49023 20.559 3.49023 16.0014C3.49023 8.55635 9.07522 6.92645 11.2276 6.92645C12.1976 6.92645 13.2334 7.30737 14.1469 7.64446C14.7858 7.87959 15.4465 8.12235 15.8139 8.12235C16.0339 8.12235 16.5522 7.91584 17.0098 7.73467C17.9857 7.34615 19.2001 6.86328 20.6143 6.86328C20.6168 6.86328 20.6202 6.86328 20.6227 6.86328C21.6787 6.86328 24.8804 7.09502 26.8052 9.98565L27.2561 10.6633L26.6072 11.153C25.6802 11.8524 23.9887 13.1284 23.9887 15.6559C23.9887 18.6494 25.9043 19.8006 26.8246 20.3543C27.2309 20.5987 27.6514 20.8507 27.6514 21.4018C27.6514 21.7617 24.7792 29.489 20.6084 29.489C19.5878 29.489 18.8664 29.1822 18.2301 28.9117C17.5862 28.6378 17.0308 28.4018 16.1131 28.4018C15.6478 28.4018 15.0596 28.6218 14.4368 28.8553C13.5857 29.1729 12.6224 29.5336 11.5293 29.5336H11.5007Z" fill="white"/>
<path d="M21.0563 0.0771484C21.1649 3.99374 18.3638 6.7109 15.5661 6.54048C15.1051 3.41491 18.3636 0.0771484 21.0563 0.0771484Z" fill="white"/>
</g>
</svg>
