<svg width="60" height="61" viewBox="0 0 60 61" fill="none" xmlns="http://www.w3.org/2000/svg">
<rect y="0.562012" width="60" height="60" rx="30" fill="#BAFA3D"/>
<mask id="mask0_1_1147" style="mask-type:luminance" maskUnits="userSpaceOnUse" x="15" y="15" width="30" height="31">
<path d="M45 15.562H15V45.562H45V15.562Z" fill="white"/>
</mask>
<g mask="url(#mask0_1_1147)">
<path d="M25.855 45.5611C21.3901 45.5354 17.6968 36.4209 17.6968 31.7793C17.6968 24.197 23.3848 22.537 25.5769 22.537C26.5648 22.537 27.6197 22.9249 28.55 23.2682C29.2007 23.5077 29.8736 23.7549 30.2478 23.7549C30.4718 23.7549 30.9997 23.5446 31.4657 23.3601C32.4596 22.9644 33.6964 22.4727 35.1367 22.4727C35.1393 22.4727 35.1427 22.4727 35.1453 22.4727C36.2207 22.4727 39.4815 22.7087 41.4418 25.6526L41.901 26.3427L41.2401 26.8414C40.296 27.5537 38.5733 28.8533 38.5733 31.4274C38.5733 34.4761 40.5243 35.6485 41.4615 36.2125C41.8753 36.4614 42.3036 36.718 42.3036 37.2793C42.3036 37.6458 39.3784 45.5156 35.1307 45.5156C34.0913 45.5156 33.3566 45.2032 32.7085 44.9277C32.0528 44.6487 31.4871 44.4084 30.5525 44.4084C30.0786 44.4084 29.4796 44.6324 28.8453 44.8702C27.9785 45.1937 26.9974 45.5611 25.8841 45.5611H25.855Z" fill="#0F1E20"/>
<path d="M35.5865 15.5615C35.6971 19.5504 32.8445 22.3176 29.9952 22.1441C29.5257 18.9608 32.8442 15.5615 35.5865 15.5615Z" fill="#0F1E20"/>
</g>
</svg>
