<svg width="24" height="25" viewBox="0 0 24 25" fill="none" xmlns="http://www.w3.org/2000/svg">
<path d="M13.0281 2.46484C14.1535 2.4667 14.7238 2.47265 15.2166 2.48732L15.4107 2.49367C15.6349 2.50164 15.8561 2.51164 16.1228 2.52414C17.1869 2.5733 17.9128 2.74164 18.5503 2.98914C19.2094 3.2433 19.7661 3.58664 20.3219 4.14247C20.8769 4.6983 21.2203 5.25664 21.4753 5.91414C21.7219 6.5508 21.8903 7.27747 21.9403 8.34164C21.9522 8.6083 21.9618 8.8295 21.9697 9.05375L21.976 9.24783C21.9906 9.74058 21.9973 10.311 21.9994 11.4364L22.0002 12.1821C22.0003 12.2732 22.0003 12.3672 22.0003 12.4642L22.0002 12.7463L21.9996 13.492C21.9977 14.6174 21.9918 15.1877 21.9771 15.6805L21.9707 15.8746C21.9628 16.0988 21.9528 16.32 21.9403 16.5867C21.8911 17.6508 21.7219 18.3767 21.4753 19.0142C21.2211 19.6733 20.8769 20.23 20.3219 20.7858C19.7661 21.3408 19.2069 21.6842 18.5503 21.9392C17.9128 22.1858 17.1869 22.3542 16.1228 22.4042C15.8561 22.4161 15.6349 22.4257 15.4107 22.4336L15.2166 22.4399C14.7238 22.4545 14.1535 22.4612 13.0281 22.4633L12.2824 22.4641C12.1913 22.4642 12.0973 22.4642 12.0003 22.4642L11.7182 22.4641L10.9725 22.4635C9.8471 22.4616 9.27672 22.4557 8.78397 22.441L8.58989 22.4346C8.36564 22.4267 8.14444 22.4167 7.87778 22.4042C6.81361 22.355 6.08861 22.1858 5.45028 21.9392C4.79194 21.685 4.23444 21.3408 3.67861 20.7858C3.12278 20.23 2.78028 19.6708 2.52528 19.0142C2.27778 18.3767 2.11028 17.6508 2.06028 16.5867C2.0484 16.32 2.03871 16.0988 2.03086 15.8746L2.02457 15.6805C2.00994 15.1877 2.00327 14.6174 2.00111 13.492L2.00098 11.4364C2.00284 10.311 2.00879 9.74058 2.02346 9.24783L2.02981 9.05375C2.03778 8.8295 2.04778 8.6083 2.06028 8.34164C2.10944 7.27664 2.27778 6.55164 2.52528 5.91414C2.77944 5.2558 3.12278 4.6983 3.67861 4.14247C4.23444 3.58664 4.79278 3.24414 5.45028 2.98914C6.08778 2.74164 6.81278 2.57414 7.87778 2.52414C8.14444 2.51226 8.36564 2.50257 8.58989 2.49472L8.78397 2.48843C9.27672 2.4738 9.8471 2.46713 10.9725 2.46497L13.0281 2.46484ZM12.0003 7.46414C9.23738 7.46414 7.00028 9.70367 7.00028 12.4642C7.00028 15.2271 9.23981 17.4642 12.0003 17.4642C14.7632 17.4642 17.0003 15.2246 17.0003 12.4642C17.0003 9.70124 14.7607 7.46414 12.0003 7.46414ZM12.0003 9.46414C13.6572 9.46414 15.0003 10.8068 15.0003 12.4642C15.0003 14.1211 13.6576 15.4642 12.0003 15.4642C10.3434 15.4642 9.00028 14.1215 9.00028 12.4642C9.00028 10.8073 10.3429 9.46414 12.0003 9.46414ZM17.2503 5.96414C16.561 5.96414 16.0003 6.52404 16.0003 7.21329C16.0003 7.90253 16.5602 8.4633 17.2503 8.4633C17.9395 8.4633 18.5003 7.9034 18.5003 7.21329C18.5003 6.52404 17.9386 5.96327 17.2503 5.96414Z" fill="#BAFA3D"/>
</svg>
