<svg width="24" height="25" viewBox="0 0 24 25" fill="none" xmlns="http://www.w3.org/2000/svg">
<path d="M6.94048 5.4638C6.94011 6.27811 6.44608 7.01089 5.69134 7.3166C4.9366 7.62232 4.07187 7.43992 3.5049 6.85542C2.93793 6.27091 2.78195 5.40102 3.1105 4.65594C3.43906 3.91086 4.18654 3.43937 5.00048 3.4638C6.08155 3.49625 6.94097 4.38224 6.94048 5.4638ZM7.00048 8.9438H3.00048V21.4638H7.00048V8.9438ZM13.3205 8.9438H9.34048V21.4638H13.2805V14.8938C13.2805 11.2338 18.0505 10.8938 18.0505 14.8938V21.4638H22.0005V13.5338C22.0005 7.3638 14.9405 7.5938 13.2805 10.6238L13.3205 8.9438Z" fill="#BAFA3D"/>
</svg>
