<svg width="60" height="61" viewBox="0 0 60 61" fill="none" xmlns="http://www.w3.org/2000/svg">
<rect y="0.562012" width="60" height="60" rx="30" fill="#BAFA3D"/>
<mask id="mask0_1_1159" style="mask-type:luminance" maskUnits="userSpaceOnUse" x="15" y="15" width="30" height="31">
<path d="M45 15.562H15V45.562H45V15.562Z" fill="white"/>
</mask>
<g mask="url(#mask0_1_1159)">
<path d="M20.7481 15.9443C19.9752 15.4791 19.0541 15.4375 18.2508 15.8248L31.7199 29.3226L36.1238 24.8981L20.7481 15.9443ZM17.0133 17.074C16.8434 17.4338 16.752 17.834 16.752 18.2459V42.9365C16.752 43.3501 16.8439 43.7444 17.0156 44.0966L30.4794 30.5689L17.0133 17.074ZM31.7217 31.8134L18.2743 45.3247C18.6311 45.49 19.0108 45.562 19.3899 45.562C19.8581 45.562 20.3251 45.4501 20.7482 45.1958L36.1268 36.2285L31.7217 31.8134ZM41.9798 28.3084C41.9746 28.3048 41.9687 28.3013 41.9634 28.2984L37.6943 25.8123L32.9616 30.5672L37.6971 35.3127C37.6971 35.3127 41.9746 32.8189 41.9798 32.816C42.7738 32.3338 43.2479 31.4912 43.2479 30.5619C43.2479 29.6325 42.7738 28.79 41.9798 28.3084Z" fill="#0F1E20"/>
</g>
</svg>
