<svg width="31" height="30" viewBox="0 0 31 30" fill="none" xmlns="http://www.w3.org/2000/svg">
<mask id="mask0_1_568" style="mask-type:luminance" maskUnits="userSpaceOnUse" x="0" y="0" width="31" height="30">
<path d="M30.4301 0.0776367H0.973389V29.5343H30.4301V0.0776367Z" fill="white"/>
</mask>
<g mask="url(#mask0_1_568)">
<path d="M6.61737 0.453041C5.85851 -0.00377944 4.95408 -0.0446193 4.1653 0.335671L17.3905 13.5891L21.7147 9.24465L6.61737 0.453041ZM2.9502 1.56228C2.78335 1.91553 2.6936 2.30849 2.6936 2.71294V26.9564C2.6936 27.3624 2.78393 27.7496 2.9525 28.0954L16.1725 14.8128L2.9502 1.56228ZM17.3923 16.0348L4.18837 29.3013C4.53875 29.4636 4.91157 29.5343 5.28381 29.5343C5.7435 29.5343 6.20204 29.4244 6.61743 29.1747L21.7176 20.3699L17.3923 16.0348ZM27.4646 12.5932C27.4595 12.5897 27.4537 12.5863 27.4485 12.5834L23.2567 10.1423L18.6097 14.8111L23.2595 19.4706C23.2595 19.4706 27.4595 17.022 27.4646 17.0191C28.2442 16.5457 28.7097 15.7184 28.7097 14.8059C28.7097 13.8933 28.2442 13.0661 27.4646 12.5932Z" fill="white"/>
</g>
</svg>
